<svg width="219" height="64" viewBox="0 0 219 64" fill="none" xmlns="http://www.w3.org/2000/svg">
<path d="M18.8912 49.8211L10.5184 34.7763H5.96565V49.8211H0V12.2092H12.5593C15.3502 12.2092 17.7051 12.7143 19.6238 13.7245C21.5775 14.7347 23.0253 16.0876 23.9673 17.7833C24.9441 19.479 25.4325 21.3731 25.4325 23.4657C25.4325 25.919 24.7348 28.1559 23.3393 30.1763C21.9787 32.1606 19.868 33.5136 17.0073 34.2351L26.0081 49.8211H18.8912ZM5.96565 29.8516H12.5593C14.792 29.8516 16.4666 29.2743 17.583 28.1198C18.7342 26.9653 19.3099 25.4139 19.3099 23.4657C19.3099 21.5174 18.7517 20.0021 17.6353 18.9198C16.5189 17.8013 14.8269 17.2421 12.5593 17.2421H5.96565V29.8516Z" fill="white"/>
<path d="M57.607 20.0021V49.8211H51.6414V46.3034C50.6994 47.5301 49.4609 48.5042 47.9259 49.2258C46.4258 49.9113 44.821 50.2541 43.1115 50.2541C40.8439 50.2541 38.803 49.767 36.9889 48.7929C35.2097 47.8187 33.7968 46.3756 32.7501 44.4634C31.7384 42.5513 31.2326 40.2422 31.2326 37.5363V20.0021H37.1459V36.6163C37.1459 39.2862 37.7913 41.3426 39.0821 42.7858C40.3729 44.1928 42.1347 44.8964 44.3675 44.8964C46.6002 44.8964 48.362 44.1928 49.6528 42.7858C50.9785 41.3426 51.6414 39.2862 51.6414 36.6163V20.0021H57.607Z" fill="white"/>
<path d="M78.4561 19.5151C80.7238 19.5151 82.7472 20.0021 84.5264 20.9763C86.3405 21.9504 87.7535 23.3935 88.7652 25.3057C89.7769 27.2179 90.2828 29.5269 90.2828 32.2328V49.8211H84.3694V33.1528C84.3694 30.483 83.724 28.4445 82.4332 27.0375C81.1424 25.5943 79.3806 24.8727 77.1479 24.8727C74.9151 24.8727 73.1359 25.5943 71.8102 27.0375C70.5194 28.4445 69.874 30.483 69.874 33.1528V49.8211H63.9083V20.0021H69.874V23.4116C70.8508 22.1849 72.0893 21.2288 73.5894 20.5433C75.1244 19.8578 76.7467 19.5151 78.4561 19.5151Z" fill="white"/>
<path d="M102.288 24.3857C103.3 23.0147 104.678 21.8602 106.422 20.9221C108.166 19.9841 110.138 19.5151 112.335 19.5151C114.847 19.5151 117.132 20.1645 119.191 21.4633C121.284 22.7261 122.924 24.512 124.11 26.821C125.296 29.13 125.889 31.7818 125.889 34.7763C125.889 37.7709 125.296 40.4587 124.11 42.8399C122.924 45.185 121.284 47.025 119.191 48.3599C117.132 49.6588 114.847 50.3082 112.335 50.3082C110.138 50.3082 108.184 49.8572 106.474 48.9552C104.765 48.0172 103.37 46.8627 102.288 45.4917V64H96.3224V20.0021H102.288V24.3857ZM119.819 34.7763C119.819 32.7198 119.4 30.952 118.563 29.4728C117.76 27.9575 116.679 26.821 115.318 26.0633C113.993 25.2696 112.562 24.8727 111.027 24.8727C109.527 24.8727 108.097 25.2696 106.736 26.0633C105.41 26.8571 104.329 28.0116 103.492 29.5269C102.689 31.0422 102.288 32.8281 102.288 34.8846C102.288 36.941 102.689 38.745 103.492 40.2964C104.329 41.8117 105.41 42.9662 106.736 43.7599C108.097 44.5536 109.527 44.9505 111.027 44.9505C112.562 44.9505 113.993 44.5536 115.318 43.7599C116.679 42.9301 117.76 41.7395 118.563 40.1881C119.4 38.6367 119.819 36.8328 119.819 34.7763Z" fill="white"/>
<path d="M153.623 34.3975C153.623 31.3308 154.216 28.643 155.402 26.3339C156.623 23.9888 158.298 22.1849 160.426 20.9221C162.554 19.6594 164.996 19.028 167.752 19.028C171.241 19.028 174.119 19.8939 176.386 21.6257C178.689 23.3214 180.241 25.7567 181.044 28.9316H174.607C174.084 27.4524 173.247 26.2978 172.095 25.468C170.944 24.6382 169.496 24.2233 167.752 24.2233C165.31 24.2233 163.356 25.1253 161.891 26.9292C160.461 28.6971 159.745 31.1865 159.745 34.3975C159.745 37.6085 160.461 40.116 161.891 41.9199C163.356 43.7238 165.31 44.6258 167.752 44.6258C171.206 44.6258 173.491 43.0564 174.607 39.9175H181.044C180.207 42.9481 178.637 45.3654 176.334 47.1693C174.032 48.9372 171.171 49.8211 167.752 49.8211C164.996 49.8211 162.554 49.1897 160.426 47.927C158.298 46.6281 156.623 44.8242 155.402 42.5152C154.216 40.1701 153.623 37.4642 153.623 34.3975Z" fill="white"/>
<path d="M196.827 34.4516L210.119 49.334H202.06L191.385 36.5081V49.334H185.419V9.28678H191.385V32.5575L201.851 19.5151H210.119L196.827 34.4516Z" fill="white"/>
<path d="M215.232 49.7129C214.151 49.7129 213.244 49.334 212.511 48.5764C211.778 47.8187 211.412 46.8807 211.412 45.7623C211.412 44.6438 211.778 43.7058 212.511 42.9481C213.244 42.1905 214.151 41.8116 215.232 41.8116C216.279 41.8116 217.168 42.1905 217.901 42.9481C218.634 43.7058 219 44.6438 219 45.7623C219 46.8807 218.634 47.8187 217.901 48.5764C217.168 49.334 216.279 49.7129 215.232 49.7129Z" fill="white"/>
<path d="M149.577 4.14196C149.577 6.42951 147.727 8.28393 145.445 8.28393C143.162 8.28393 141.312 6.42951 141.312 4.14196C141.312 1.85442 143.162 0 145.445 0C147.727 0 149.577 1.85442 149.577 4.14196Z" fill="white"/>
<path fill-rule="evenodd" clip-rule="evenodd" d="M145.445 8.0167C147.58 8.0167 149.311 6.28192 149.311 4.14196C149.311 2.002 147.58 0.267223 145.445 0.267223C143.309 0.267223 141.578 2.002 141.578 4.14196C141.578 6.28192 143.309 8.0167 145.445 8.0167ZM145.445 8.28393C147.727 8.28393 149.577 6.42951 149.577 4.14196C149.577 1.85442 147.727 0 145.445 0C143.162 0 141.312 1.85442 141.312 4.14196C141.312 6.42951 143.162 8.28393 145.445 8.28393Z" fill="white"/>
<path fill-rule="evenodd" clip-rule="evenodd" d="M143.478 24.597C144.062 22.8091 144.497 21.1954 144.713 19.7701C144.97 18.0648 144.837 17.0358 144.573 16.4482C144.396 16.0545 144.114 15.3374 143.109 15.3374C143.021 15.3374 142.847 15.3322 142.645 15.499C142.443 15.6657 142.497 15.9917 142.522 16.737C142.57 18.229 142.85 20.3177 143.288 23.3067C143.349 23.7217 143.412 24.1517 143.478 24.597ZM141.351 44.5382C140.934 44.9069 140.474 45.2322 139.966 45.5042C137.737 46.6986 135.244 46.5424 132.718 45.4873L130.672 48.9325L126.089 46.1989L130.816 38.2407L133.126 39.688C135.751 41.332 136.97 41.0494 137.453 40.7909C138.108 40.4397 138.979 39.3492 139.516 36.8139C139.619 36.3301 139.63 35.755 139.548 35.0945C139.08 31.3245 138.612 28.1499 138.215 25.4623C138.145 24.9876 138.077 24.528 138.012 24.0831C137.586 21.1748 137.252 18.7658 137.192 16.9111C137.137 15.218 137.25 13.1258 138.591 11.6236C140.069 9.96929 141.808 10.6847 144 11C146.643 11.3802 148.479 12.1245 149.435 14.2532C150.317 16.2159 150.304 18.4576 149.985 20.5695C149.412 24.3684 147.61 29.0592 145.81 33.7476C145.629 34.2188 145.448 34.69 145.268 35.1603C145.084 35.6431 144.992 36.6385 145.229 38.2263C145.455 39.7349 145.928 41.4685 146.535 43.2108C147.283 45.3594 148.165 47.3263 148.896 48.7405L152.096 46.8629L154.79 51.4753L147.321 55.8575L145.883 54.03C144.664 52.4791 142.813 48.741 141.5 44.9729C141.45 44.8288 141.401 44.6838 141.351 44.5382Z" fill="white"/>
</svg>
